<svg width="32" height="32" viewBox="0 0 32 32" fill="none" xmlns="http://www.w3.org/2000/svg">
  <!-- Brain/Mind Symbol -->
  <path d="M16 4C12.5 4 9.5 6.5 9 10.5C8.5 10.2 7.9 10 7.3 10C5.5 10 4 11.5 4 13.3C4 14.2 4.3 15 4.8 15.6C4.3 16.4 4 17.4 4 18.5C4 21.5 6.5 24 9.5 24H10.5C11.9 26.3 14.3 28 17 28H22.5C25.5 28 28 25.5 28 22.5C28 21.4 27.7 20.4 27.2 19.6C27.7 19 28 18.2 28 17.3C28 15.5 26.5 14 24.7 14C24.1 14 23.5 14.2 23 14.5C22.5 10.5 19.5 8 16 8V4Z" fill="#3B82F6"/>
  
  <!-- Email Envelope -->
  <rect x="6" y="12" width="20" height="14" rx="2" fill="#FFFFFF" stroke="#3B82F6" stroke-width="1.5"/>
  <path d="M6 14L16 20L26 14" stroke="#3B82F6" stroke-width="1.5" fill="none"/>
  
  <!-- AI Dots -->
  <circle cx="10" cy="8" r="1" fill="#10B981"/>
  <circle cx="14" cy="6" r="1" fill="#10B981"/>
  <circle cx="18" cy="6" r="1" fill="#10B981"/>
  <circle cx="22" cy="8" r="1" fill="#10B981"/>
</svg>